<?xml version="1.0" ?><svg data-name="Layer 1" id="Layer_1" viewBox="0 0 508.33 508.36" xmlns="http://www.w3.org/2000/svg"><defs><style>.cls-1{fill:#ff8000;fill-rule:evenodd;}.cls-2{fill:#fff;}</style></defs><title/><path class="cls-1" d="M485,29.72c11.45,15.13,16.61,40.21,19.15,70.7,3.36,45.5,4.71,100.1,6,156.52-1.67,57.47-2.35,115.43-6,156.52-2.88,31.54-9,52.66-19.22,65.47-13,12.79-37.94,23.59-73.5,26.15-43.25,3.69-96.61,3.65-155.48,5.1-65.44-1.12-109.82-.64-156.38-5.08-36.32-2.52-60.08-13.19-74.7-26.07-10.83-14.54-14-30-17-66.24-3.75-41.85-4.58-98.56-6-155.54C4,200.57,4.13,143.44,7.9,100.74,10.43,67.05,14.42,44.4,24.65,30,39,17.77,63.48,11.69,100,8.69c50-5.85,102.06-7,155.88-6.87,55.39.09,108.56,1.67,156,6.34,32,2.56,58.48,8.07,73.07,21.56Z" transform="translate(-1.83 -1.82)"/><path class="cls-2" d="M397.77,224.36l-2.52-5.2L391,215.87c-5.5-4.31-33.3.28-40.79-6.52-5.31-4.89-6.13-13.7-7.74-25.59-3-23.13-4.88-24.32-8.48-32.13-13.09-27.81-48.62-48.72-73-51.62H194.88c-52,0-94.52,42.61-94.52,94.61V305c0,51.91,42.51,94.43,94.52,94.43H303.51c52,0,94.26-42.52,94.56-94.43l.58-76.44Zm-201.68-47h52.42a18.07,18.07,0,1,1,0,36.13H196.09a18.07,18.07,0,1,1,0-36.13ZM302.6,321.59H196.09a18,18,0,1,1,0-36H302.6a18,18,0,0,1,0,36Z" transform="translate(-1.83 -1.82)"/></svg>