<svg id="Capa_1" enable-background="new 0 0 512 512" height="512" viewBox="0 0 512 512" width="512" xmlns="http://www.w3.org/2000/svg"><g><path d="m284.053 317.287h193.747v127.279h-193.747z" fill="#fdde80" transform="matrix(.707 -.707 .707 .707 -157.785 380.926)"/><path d="m512 315c0 33.137-26.863 60-60 60h-77v77c0 33.137-26.863 60-60 60h-59l-111-256 111-256h256z" fill="#f8a808"/><path d="m0 0h256v512h-256z" fill="#fbbd00"/><path d="m256 75-10 15 10 15c58.448 0 106 47.551 106 106 0 43.576-26.135 82.21-66.582 98.426l-9.418 3.776v33.798h-30l-10 15 10 15h30v30h-30l-10 15 10 15h60v-103.922c20.87-10.254 38.728-25.656 52.054-44.992 15.666-22.731 23.946-49.386 23.946-77.086 0-74.991-61.01-136-136-136z" fill="#e3e7ea"/><path d="m226 407v-30h30v-30h-30v-33.798l-9.418-3.776c-40.447-16.216-66.582-54.85-66.582-98.426 0-58.449 47.552-106 106-106v-30c-74.99 0-136 61.009-136 136 0 27.7 8.28 54.355 23.946 77.086 13.326 19.335 31.184 34.738 52.054 44.992v103.922h60v-30z" fill="#fff"/></g></svg>